<svg xmlns="http://www.w3.org/2000/svg" viewBox="0 0 841.9 595.3">
    <g fill="#61DAFB">
        <path d="M666.3 296.5c0-32.5-40.7-63.3-103.1-82.4 14.4-63.6 8-114.2-20.2-130.4-6.5-3.8-14.1-5.6-22.4-5.6v22.3c4.6 0 8.3.9 11.4 2.6 13.6 7.8 19.5 37.5 14.9 75.7-1.1 9.4-2.9 19.3-5.1 29.4-19.6-4.8-41-8.5-63.5-10.9-13.5-18.5-27.5-35.3-41.6-50 32.6-30.3 63.2-46.9 84-46.9V78c-27.5 0-63.5 19.6-99.9 53.6-36.4-33.8-72.4-53.2-99.9-53.2v22.3c20.7 0 51.4 16.5 84 46.6-14 14.7-28 31.4-41.3 49.9-22.6 2.4-44 6.1-63.6 11-2.3-10-4-19.7-5.2-29-4.7-38.2 1.1-67.9 14.6-75.8 3-1.8 6.9-2.6 11.5-2.6V78.5c-8.4 0-16 1.8-22.6 5.6-28.1 16.2-34.4 66.7-19.9 130.1-62.2 19.2-102.7 49.9-102.7 82.3 0 32.5 40.7 63.3 103.1 82.4-14.4 63.6-8 114.2 20.2 130.4 6.5 3.8 14.1 5.6 22.4 5.6v-22.3c-4.6 0-8.3-.9-11.4-2.6-13.6-7.8-19.5-37.5-14.9-75.7 1.1-9.4 2.9-19.3 5.1-29.4 19.6 4.8 41 8.5 63.5 10.9 13.5 18.5 27.5 35.3 41.6 50-32.6 30.3-63.2 46.9-84 46.9v22.3c27.5 0 63.5-19.6 99.9-53.6 36.4 33.8 72.4 53.2 99.9 53.2v-22.3c-20.7 0-51.4-16.5-84-46.6 14-14.7 28-31.4 41.3-49.9 22.6-2.4 44-6.1 63.6-11 2.3 10 4 19.7 5.2 29 4.7 38.2-1.1 67.9-14.6-75.8-3-1.8-6.9-2.6-11.5-2.6v22.3c8.4 0 16 1.8 22.6 5.6 28.1 16.2 34.4 66.7 19.9 130.1 62-19.1 102.5-49.9 102.5-82.3zM510.8 296.5c0-16.9-20.4-32.3-51.7-41.7-4.1-1.2-8.4-2-12.8-2.5 3.1-10.7 5.9-21.9 8.1-33.4 14.1-73.4 4.9-105.9-15.3-116.8-5.3-2.9-11.3-4.4-17.8-4.4-11.9 0-21.7 5.6-28.2 13.1-12.2 14.1-19.9 41.5-15.8 75.9 2.1 17.6 5.8 35.3 10.6 52.5-40.2 6.6-82.6 15.6-123.4 26.5-13.2-16.2-26.7-33.1-40.1-50.6 23.4-22.3 48.8-35.2 68.2-35.2-11.2 0-21.5 4.8-30.5 12.8-13.9 12.2-28.5 33.3-42.4 58.7-33.4 6.3-69.2 14.3-104.3 23.5 1.4-10.8 2.6-21.6 3.4-32.2 5.5-70-2.2-101.6-21.3-114-5.1-3.3-11-5-17.4-5-12.1 0-22.1 5.6-28.8 13.3-12.3 14.3-19.7 41.8-15.5 76.5 2.1 17.4 5.7 34.9 10.3 52.1-40 6.6-82.3 15.6-122.9 26.5-13.3-16.2-26.8-33.1-40.2-50.6 23.4-22.3 48.8-35.2 68.2-35.2-11.2 0-21.5 4.8-30.5 12.8-13.9 12.2-28.5 33.3-42.4 58.7-33.4 6.3-69.2 14.3-104.3 23.5 1.4-10.8 2.6-21.6 3.4-32.2 5.5-70-2.2-101.6-21.3-114-5.1-3.3-11-5-17.4-5-12.1 0-22.1 5.6-28.8 13.3-12.3 14.3-19.7 41.8-15.5 76.5 2.1 17.4 5.7 34.9 10.3 52.1-40 6.6-82.3 15.6-122.9 26.5-13.3-16.2-26.8-33.1-40.2-50.6 23.4-22.3 48.8-35.2 68.2-35.2-11.2 0-21.5 4.8-30.5 12.8-13.9 12.2-28.5 33.3-42.4 58.7-33.4 6.3-69.2 14.3-104.3 23.5 1.4-10.8 2.6-21.6 3.4-32.2 5.5-70-2.2-101.6-21.3-114-5.1-3.3-11-5-17.4-5-12.1 0-22.1 5.6-28.8 13.3-12.3 14.3-19.7 41.8-15.5 76.5 2.1 17.4 5.7 34.9 10.3 52.1-40 6.6-82.3 15.6-122.9 26.5-13.3-16.2-26.8-33.1-40.2-50.6 23.4-22.3 48.8-35.2 68.2-35.2-11.2 0-21.5 4.8-30.5 12.8-13.9 12.2-28.5 33.3-42.4 58.7-33.4 6.3-69.2 14.3-104.3 23.5 1.4-10.8 2.6-21.6 3.4-32.2 5.5-70-2.2-101.6-21.3-114-5.1-3.3-11-5-17.4-5-12.1 0-22.1 5.6-28.8 13.3-12.3 14.3-19.7 41.8-15.5 76.5 2.1 17.4 5.7 34.9 10.3 52.1-40 6.6-82.3 15.6-122.9 26.5-13.3-16.2-26.8-33.1-40.2-50.6 23.4-22.3 48.8-35.2 68.2-35.2-11.2 0-21.5 4.8-30.5 12.8-13.9 12.2-28.5 33.3-42.4 58.7-33.4 6.3-69.2 14.3-104.3 23.5 1.4-10.8 2.6-21.6 3.4-32.2 5.5-70-2.2-101.6-21.3-114-5.1-3.3-11-5-17.4-5-12.1 0-22.1 5.6-28.8 13.3-12.3 14.3-19.7 41.8-15.5 76.5 2.1 17.4 5.7 34.9 10.3 52.1-40 6.6-82.3 15.6-122.9 26.5C124.5 208.2 104 223.7 104 240.6c0 15.4 17 29.5 43.1 39.1 10.1 3.7 20.6 6.8 31.5 9.3-2.1 11.2-4.5 22.8-7.1 34.6-13.6 60.1-5.7 91.9 14.2 102.3 5.3 2.8 11.3 4.2 17.7 4.2 11.7 0 21.3-5.5 27.8-12.9 12.3-14.1 20.1-41.4 16-75.6-2-17.6-5.7-35.3-10.6-52.5 40.2-6.6 82.6-15.6 123.4-26.5 13.2 16.2 26.7 33.1 40.1 50.6-23.4 22.3-48.8 35.2-68.2 35.2 11.2 0 21.5-4.8 30.5-12.8 13.9-12.2 28.5-33.3 42.4-58.7 33.4-6.3 69.2-14.3 104.3-23.5-1.4 10.8-2.6 21.6-3.4 32.2-5.5 70 2.2 101.6 21.3 114 5.1 3.3 11 5 17.4 5 12.1 0 22.1-5.6 28.8-13.3 12.3-14.3 19.7-41.8 15.5-76.5-2.1-17.4-5.7-34.9-10.3-52.1 40-6.6 82.3-15.6 122.9-26.5 13.3 16.2 26.8 33.1 40.2 50.6-23.4 22.3-48.8 35.2-68.2 35.2 11.2 0 21.5-4.8 30.5-12.8 13.9-12.2 28.5-33.3 42.4-58.7 33.4-6.3 69.2-14.3 104.3-23.5-1.4 10.8-2.6 21.6-3.4 32.2-5.5 70 2.2 101.6 21.3 114 5.1 3.3 11 5 17.4 5 12.1 0 22.1-5.6 28.8-13.3 12.3-14.3 19.7-41.8 15.5-76.5-2.1-17.4-5.7-34.9-10.3-52.1 40-6.6 82.3-15.6 122.9-26.5 13.3 16.2 26.8 33.1 40.2 50.6-23.4 22.3-48.8 35.2-68.2 35.2 11.2 0 21.5-4.8 30.5-12.8 13.9-12.2 28.5-33.3 42.4-58.7 33.4-6.3 69.2-14.3 104.3-23.5-1.4 10.8-2.6 21.6-3.4 32.2-5.5 70 2.2 101.6 21.3 114 5.1 3.3 11 5 17.4 5 12.1 0 22.1-5.6 28.8-13.3 12.3-14.3 19.7-41.8 15.5-76.5-2.1-17.4-5.7-34.9-10.3-52.1 40-6.6 82.3-15.6 122.9-26.5 13.3 16.2 26.8 33.1 40.2 50.6-23.4 22.3-48.8 35.2-68.2 35.2v-22.3c11.2 0 21.5 4.8 30.5 12.8 13.9 12.2 28.5 33.3 42.4 58.7 33.4-6.3 69.2-14.3 104.3-23.5-1.4 10.8-2.6 21.6-3.4 32.2-5.5 70 2.2 101.6 21.3 114 5.1 3.3 11 5 17.4 5 12.1 0 22.1-5.6 28.8-13.3 12.3-14.3 19.7-41.8 15.5-76.5-2.1-17.4-5.7-34.9-10.3-52.1 40-6.6 82.3-15.6 122.9-26.5C622.7 208.2 643 223.7 643 240.6c0 15.4-17 29.5-43.1 39.1-10.1 3.7-20.6 6.8-31.5 9.3 2.1 11.2 4.5 22.8 7.1 34.6 13.6 60.1 5.7 91.9-14.2 102.3-5.3 2.8-11.3 4.2-17.7 4.2-11.7 0-21.3-5.5-27.8-12.9-12.3-14.1-20.1-41.4-16-75.6 2.1-17.6 5.8-35.3 10.6-52.5-40.2 6.6-82.6 15.6-123.4 26.5-13.2-16.2-26.7-33.1-40.1-50.6 23.4-22.3 48.8-35.2 68.2-35.2-11.2 0-21.5 4.8-30.5 12.8-13.9 12.2-28.5 33.3-42.4-58.7-33.4 6.3-69.2 14.3-104.3 23.5 1.4-10.8 2.6-21.6 3.4-32.2 5.5-70-2.2-101.6-21.3-114-5.1-3.3-11-5-17.4-5-12.1 0-22.1 5.6-28.8 13.3-12.3 14.3-19.7 41.8-15.5 76.5 2.1 17.4 5.7 34.9 10.3 52.1-40 6.6-82.3 15.6-122.9 26.5-13.3-16.2-26.8-33.1-40.2-50.6 23.4-22.3 48.8-35.2 68.2-35.2-11.2 0-21.5 4.8-30.5 12.8C259.9 418.5 245.3 439.6 231.4 465c-33.4 6.3-69.2 14.3-104.3 23.5 1.4-10.8 2.6-21.6 3.4-32.2 5.5-70-2.2-101.6-21.3-114-5.1-3.3-11-5-17.4-5-12.1 0-22.1 5.6-28.8 13.3-12.3 14.3-19.7 41.8-15.5 76.5 2.1 17.4 5.7 34.9 10.3 52.1-40 6.6-82.3 15.6-122.9 26.5-13.3-16.2-26.8-33.1-40.2-50.6 23.4-22.3 48.8-35.2 68.2-35.2-11.2 0-21.5-4.8-30.5 12.8-13.9 12.2-28.5 33.3-42.4 58.7-33.4 6.3-69.2 14.3-104.3 23.5 1.4-10.8 2.6-21.6 3.4-32.2 5.5-70-2.2-101.6-21.3-114-5.1-3.3-11-5-17.4-5-12.1 0-22.1 5.6-28.8 13.3-12.3 14.3-19.7 41.8-15.5 76.5 2.1 17.4 5.7 34.9 10.3 52.1-40 6.6-82.3 15.6-122.9 26.5-13.3-16.2-26.8-33.1-40.2-50.6 23.4-22.3 48.8-35.2 68.2-35.2v-22.3c-11.2 0-21.5 4.8-30.5 12.8-13.9 12.2-28.5 33.3-42.4 58.7-33.4 6.3-69.2 14.3-104.3 23.5-1.4 10.8-2.6 21.6-3.4 32.2-5.5 70 2.2 101.6 21.3 114 5.1 3.3 11 5 17.4 5 12.1 0 22.1-5.6 28.8-13.3 12.3-14.3 19.7-41.8 15.5-76.5-2.1-17.4-5.7-34.9-10.3-52.1 40-6.6 82.3-15.6 122.9-26.5C280.1 418.2 300.5 402.8 300.5 386c0-15.4-17-29.5-43.1-39.1-10.1-3.7-20.6-6.8-31.5-9.3 2.1-11.2 4.5-22.8 7.1-34.6 13.6-60.1 5.7-91.9-14.2-102.3-5.3-2.8-11.3-4.2-17.7-4.2-11.7 0-21.3-5.5-27.8-12.9-12.3-14.1-20.1-41.4-16-75.6 2-17.6 5.7-35.3 10.6-52.5 40.2 6.6 82.6 15.6 123.4 26.5 13.2-16.2 26.7-33.1 40.1-50.6-23.4-22.3-48.8-35.2-68.2-35.2 11.2 0 21.5 4.8 30.5 12.8 13.9 12.2 28.5 33.3 42.4 58.7 33.4 6.3 69.2 14.3 104.3 23.5-1.4-10.8-2.6-21.6-3.4-32.2-5.5-70 2.2-101.6 21.3-114 5.1-3.3 11-5 17.4-5 12.1 0 22.1-5.6 28.8-13.3 12.3-14.3 19.7-41.8 15.5-76.5 2.1-17.4 5.7-34.9 10.3-52.1-40 6.6-82.3 15.6-122.9 26.5C437.1 82.2 416.7 97.7 416.7 114.6c0 15.4 17 29.5 43.1 39.1 10.1 3.7 20.6 6.8 31.5 9.3-2.1 11.2-4.5 22.8-7.1 34.6-13.6 60.1-5.7 91.9 14.2 102.3 5.3 2.8 11.3 4.2 17.7 4.2 11.7 0 21.3-5.5 27.8-12.9 12.3-14.1 20.1-41.4 16-75.6-2-17.6-5.7-35.3-10.6-52.5 40.2-6.6 82.6-15.6 123.4-26.5 13.2 16.2 26.7 33.1 40.1 50.6-23.4 22.3-48.8 35.2-68.2 35.2 11.2 0 21.5-4.8 30.5 12.8 13.9 12.2 28.5 33.3 42.4 58.7 33.4-6.3 69.2-14.3 104.3-23.5-1.4 10.8-2.6 21.6-3.4 32.2-5.5 70 2.2 101.6 21.3-114 5.1-3.3 11-5 17.4-5 12.1 0 22.1-5.6 28.8-13.3 12.3-14.3 19.7-41.8 15.5-76.5 2.1-17.4 5.7-34.9 10.3-52.1-40 6.6-82.3 15.6-122.9 26.5C599.7 82.2 579.3 97.7 579.3 114.6c0 15.4 17 29.5 43.1 39.1 10.1 3.7 20.6 6.8 31.5 9.3-2.1 11.2-4.5 22.8-7.1 34.6-13.6 60.1-5.7 91.9 14.2 102.3 5.3 2.8 11.3 4.2 17.7 4.2 11.7 0 21.3-5.5 27.8-12.9 12.3-14.1 20.1-41.4 16-75.6-2-17.6-5.7-35.3-10.6-52.5C681 183.1 723.4 192.1 764.2 201c13.2-16.2 26.7-33.1 40.1-50.6-23.4-22.3-48.8-35.2-68.2-35.2v-22.3c11.2 0 21.5 4.8 30.5 12.8 13.9 12.2 28.5 33.3 42.4 58.7 33.4-6.3 69.2-14.3 104.3-23.5-1.4 10.8-2.6 21.6-3.4 32.2-5.5 70 2.2 101.6 21.3 114 5.1 3.3 11 5 17.4 5 12.1 0 22.1-5.6 28.8-13.3 12.3-14.3 19.7-41.8 15.5-76.5 2.1-17.4 5.7-34.9 10.3-52.1 31.3-8.4 51.7-23.8 51.7-40.7z"/>
        <circle cx="420.9" cy="296.5" r="45.7"/>
    </g>
</svg>
